<svg width="18" height="19" viewBox="0 0 18 19" fill="none" xmlns="http://www.w3.org/2000/svg">
<path fill-rule="evenodd" clip-rule="evenodd" d="M16.5 9.50001C16.5 10.535 15.66 11.375 14.625 11.375H10.875V15.125C10.875 16.16 10.035 17 9 17C7.965 17 7.12499 16.16 7.12499 15.125V11.375H3.37501C2.34001 11.375 1.5 10.535 1.5 9.50001C1.5 8.465 2.34001 7.625 3.37501 7.625H7.12499V3.875C7.12499 2.84 7.965 2 9 2C10.035 2 10.875 2.84 10.875 3.875V7.625H14.625C15.66 7.625 16.5 8.465 16.5 9.50001Z" fill="#4DA533"/>
</svg>
