<svg width="24" height="24" viewBox="0 0 24 24" fill="none" xmlns="http://www.w3.org/2000/svg">
<g clip-path="url(#clip0_5778_349)">
<path d="M12.7659 5.625V11.2341H18.375V12.7659H12.7659V18.375H11.2341V12.7659H5.625V11.2341H11.2341V5.625H12.7659ZM13.4222 4.96875H10.5778V10.5778H4.96875V13.4222H10.5778V19.0312H13.4222V13.4222H19.0312V10.5778H13.4222V4.96875Z" fill="#66BB6A"/>
<path d="M19.3397 24H4.66031C3.42474 23.9986 2.24016 23.5072 1.36648 22.6335C0.492799 21.7598 0.0013648 20.5753 0 19.3397L0 4.66031C0.0013648 3.42474 0.492799 2.24016 1.36648 1.36648C2.24016 0.492799 3.42474 0.0013648 4.66031 0H19.3397C20.5753 0.0013648 21.7598 0.492799 22.6335 1.36648C23.5072 2.24016 23.9986 3.42474 24 4.66031V19.3397C23.9986 20.5753 23.5072 21.7598 22.6335 22.6335C21.7598 23.5072 20.5753 23.9986 19.3397 24ZM4.66031 0.638906C3.59411 0.640023 2.5719 1.06406 1.81798 1.81798C1.06406 2.5719 0.640023 3.59411 0.638906 4.66031V19.3397C0.640023 20.4059 1.06406 21.4281 1.81798 22.182C2.5719 22.9359 3.59411 23.36 4.66031 23.3611H19.3397C20.4059 23.36 21.4281 22.9359 22.182 22.182C22.9359 21.4281 23.36 20.4059 23.3611 19.3397V4.66031C23.36 3.59411 22.9359 2.5719 22.182 1.81798C21.4281 1.06406 20.4059 0.640023 19.3397 0.638906H4.66031ZM19.3397 22.1747H4.66031C3.90869 22.1738 3.1881 21.8749 2.65662 21.3434C2.12515 20.8119 1.82618 20.0913 1.82531 19.3397V4.66031C1.82618 3.90869 2.12515 3.1881 2.65662 2.65662C3.1881 2.12515 3.90869 1.82618 4.66031 1.82531H19.3397C20.0913 1.82618 20.8119 2.12515 21.3434 2.65662C21.8749 3.1881 22.1738 3.90869 22.1747 4.66031V19.3397C22.1738 20.0913 21.8749 20.8119 21.3434 21.3434C20.8119 21.8749 20.0913 22.1738 19.3397 22.1747ZM4.66031 2.46375C4.07794 2.46437 3.51959 2.69599 3.10779 3.10779C2.69599 3.51959 2.46437 4.07794 2.46375 4.66031V19.3397C2.46437 19.9221 2.69599 20.4804 3.10779 20.8922C3.51959 21.304 4.07794 21.5356 4.66031 21.5363H19.3397C19.9221 21.5356 20.4804 21.304 20.8922 20.8922C21.304 20.4804 21.5356 19.9221 21.5363 19.3397V4.66031C21.5356 4.07794 21.304 3.51959 20.8922 3.10779C20.4804 2.69599 19.9221 2.46437 19.3397 2.46375H4.66031Z" fill="#66BB6A"/>
</g>
<defs>
<clipPath id="clip0_5778_349">
<rect width="24" height="24" fill="white"/>
</clipPath>
</defs>
</svg>
