<svg width="62" height="62" viewBox="0 0 62 62" fill="none" xmlns="http://www.w3.org/2000/svg">
<g filter="url(#filter0_d_5778_1367)">
<rect x="10" y="6" width="42" height="42" rx="21" fill="white" shape-rendering="crispEdges"/>
<g opacity="0.12">
<path d="M22.8138 26.0664L25.2466 26.0664L31.407 15.9768L37.5673 26.0664L40.0001 26.0664L31.407 11.9921L22.8138 26.0664Z" fill="#1F2038"/>
<path d="M40.0001 33.2885L31.407 19.2146L22.8138 33.2885L27.9586 33.2885L29.3782 33.2885L26.3485 38.251L29.377 38.251L33.4369 38.251L36.4654 38.251L33.4357 33.2885L34.8553 33.2885L40.0001 33.2885Z" fill="#1F2038"/>
</g>
<path d="M22 26.8799L24.4328 26.8799L30.5931 16.7902L36.7534 26.8799L39.1862 26.8799L30.5931 12.8056L22 26.8799Z" fill="#EC622B"/>
<path d="M39.1862 34.102L30.5931 20.0281L22 34.102L27.1447 34.102L28.5644 34.102L25.5347 39.0645L28.5631 39.0645L32.6231 39.0645L35.6516 39.0645L32.6219 34.102L34.0415 34.102L39.1862 34.102Z" fill="#EC622B"/>
</g>
<defs>
<filter id="filter0_d_5778_1367" x="0" y="0" width="62" height="62" filterUnits="userSpaceOnUse" color-interpolation-filters="sRGB">
<feFlood flood-opacity="0" result="BackgroundImageFix"/>
<feColorMatrix in="SourceAlpha" type="matrix" values="0 0 0 0 0 0 0 0 0 0 0 0 0 0 0 0 0 0 127 0" result="hardAlpha"/>
<feOffset dy="4"/>
<feGaussianBlur stdDeviation="5"/>
<feComposite in2="hardAlpha" operator="out"/>
<feColorMatrix type="matrix" values="0 0 0 0 0 0 0 0 0 0 0 0 0 0 0 0 0 0 0.1 0"/>
<feBlend mode="normal" in2="BackgroundImageFix" result="effect1_dropShadow_5778_1367"/>
<feBlend mode="normal" in="SourceGraphic" in2="effect1_dropShadow_5778_1367" result="shape"/>
</filter>
</defs>
</svg>
